<mxfile host="www.draw.io" modified="2019-11-14T07:08:46.350Z" agent="Mozilla/5.0 (Windows NT 10.0; WOW64) AppleWebKit/537.36 (KHTML, like Gecko) Chrome/74.0.3729.131 Safari/537.36" etag="cl1L6TUSR7D8ikY1FlvI" version="12.2.6" type="github" pages="1">
  <diagram id="-3Qp-Qmmz9Oloc4rpSQ0" name="Page-1">
    <mxGraphModel dx="1360" dy="802" grid="1" gridSize="10" guides="1" tooltips="1" connect="1" arrows="1" fold="1" page="1" pageScale="1" pageWidth="3300" pageHeight="4681" math="0" shadow="0">
      <root>
        <mxCell id="0"/>
        <mxCell id="1" parent="0"/>
        <mxCell id="hpy0vqWnM9Ajz9U5k6T2-16" value="" style="rounded=0;whiteSpace=wrap;html=1;" vertex="1" parent="1">
          <mxGeometry x="190" y="410" width="390" height="100" as="geometry"/>
        </mxCell>
        <mxCell id="hpy0vqWnM9Ajz9U5k6T2-1" value="behave .feature&amp;nbsp;&lt;br&gt;@V4.0.0 and V4.0.1" style="rounded=0;whiteSpace=wrap;html=1;" vertex="1" parent="1">
          <mxGeometry x="430" y="430" width="120" height="60" as="geometry"/>
        </mxCell>
        <mxCell id="hpy0vqWnM9Ajz9U5k6T2-3" style="edgeStyle=orthogonalEdgeStyle;rounded=0;orthogonalLoop=1;jettySize=auto;html=1;exitX=1;exitY=0.5;exitDx=0;exitDy=0;" edge="1" parent="1" source="hpy0vqWnM9Ajz9U5k6T2-2">
          <mxGeometry relative="1" as="geometry">
            <mxPoint x="420" y="460" as="targetPoint"/>
          </mxGeometry>
        </mxCell>
        <mxCell id="hpy0vqWnM9Ajz9U5k6T2-2" value="behave&amp;nbsp;" style="rounded=0;whiteSpace=wrap;html=1;" vertex="1" parent="1">
          <mxGeometry x="210" y="430" width="120" height="60" as="geometry"/>
        </mxCell>
        <mxCell id="hpy0vqWnM9Ajz9U5k6T2-4" value="&lt;font style=&quot;font-size: 14px&quot;&gt;&lt;b&gt;run&lt;/b&gt;&lt;/font&gt;" style="text;html=1;resizable=0;points=[];autosize=1;align=left;verticalAlign=top;spacingTop=-4;" vertex="1" parent="1">
          <mxGeometry x="350" y="430" width="40" height="20" as="geometry"/>
        </mxCell>
        <mxCell id="hpy0vqWnM9Ajz9U5k6T2-17" style="edgeStyle=orthogonalEdgeStyle;rounded=0;orthogonalLoop=1;jettySize=auto;html=1;exitX=0.5;exitY=1;exitDx=0;exitDy=0;entryX=0.282;entryY=0;entryDx=0;entryDy=0;entryPerimeter=0;" edge="1" parent="1" source="hpy0vqWnM9Ajz9U5k6T2-5" target="hpy0vqWnM9Ajz9U5k6T2-16">
          <mxGeometry relative="1" as="geometry"/>
        </mxCell>
        <mxCell id="hpy0vqWnM9Ajz9U5k6T2-5" value="&lt;font style=&quot;font-size: 14px&quot;&gt;&lt;b&gt;gitlab CI run .yaml with tag:smoke_test&amp;nbsp; &amp;nbsp;in parallel&lt;/b&gt;&lt;/font&gt;" style="rounded=0;whiteSpace=wrap;html=1;align=left;" vertex="1" parent="1">
          <mxGeometry x="200" y="220" width="200" height="80" as="geometry"/>
        </mxCell>
        <mxCell id="hpy0vqWnM9Ajz9U5k6T2-12" style="edgeStyle=orthogonalEdgeStyle;rounded=0;orthogonalLoop=1;jettySize=auto;html=1;exitX=0.5;exitY=1;exitDx=0;exitDy=0;entryX=0.55;entryY=0;entryDx=0;entryDy=0;entryPerimeter=0;" edge="1" parent="1" source="hpy0vqWnM9Ajz9U5k6T2-6" target="hpy0vqWnM9Ajz9U5k6T2-5">
          <mxGeometry relative="1" as="geometry"/>
        </mxCell>
        <mxCell id="hpy0vqWnM9Ajz9U5k6T2-6" value="load&amp;nbsp; File Variable" style="rounded=0;whiteSpace=wrap;html=1;" vertex="1" parent="1">
          <mxGeometry x="250" y="90" width="120" height="50" as="geometry"/>
        </mxCell>
        <mxCell id="hpy0vqWnM9Ajz9U5k6T2-20" style="edgeStyle=orthogonalEdgeStyle;rounded=0;orthogonalLoop=1;jettySize=auto;html=1;exitX=0;exitY=0.5;exitDx=0;exitDy=0;entryX=1;entryY=0.5;entryDx=0;entryDy=0;" edge="1" parent="1" source="hpy0vqWnM9Ajz9U5k6T2-8" target="hpy0vqWnM9Ajz9U5k6T2-5">
          <mxGeometry relative="1" as="geometry"/>
        </mxCell>
        <mxCell id="hpy0vqWnM9Ajz9U5k6T2-8" value="parse File Variable to two devices&#39; IP and devicename" style="rounded=0;whiteSpace=wrap;html=1;align=left;" vertex="1" parent="1">
          <mxGeometry x="530" y="225" width="160" height="70" as="geometry"/>
        </mxCell>
        <mxCell id="hpy0vqWnM9Ajz9U5k6T2-18" value="&lt;b&gt;&lt;font style=&quot;font-size: 14px&quot;&gt;pass device IP and devicename variable to behave&lt;/font&gt;&lt;/b&gt;" style="text;html=1;resizable=0;points=[];autosize=1;align=left;verticalAlign=top;spacingTop=-4;" vertex="1" parent="1">
          <mxGeometry x="320" y="345" width="350" height="20" as="geometry"/>
        </mxCell>
        <mxCell id="hpy0vqWnM9Ajz9U5k6T2-21" value="" style="rounded=0;whiteSpace=wrap;html=1;" vertex="1" parent="1">
          <mxGeometry x="190" y="600" width="120" height="60" as="geometry"/>
        </mxCell>
        <mxCell id="hpy0vqWnM9Ajz9U5k6T2-22" value="" style="endArrow=classic;html=1;entryX=0.433;entryY=0;entryDx=0;entryDy=0;entryPerimeter=0;exitX=0.133;exitY=1;exitDx=0;exitDy=0;exitPerimeter=0;" edge="1" parent="1" source="hpy0vqWnM9Ajz9U5k6T2-16" target="hpy0vqWnM9Ajz9U5k6T2-21">
          <mxGeometry width="50" height="50" relative="1" as="geometry">
            <mxPoint x="242" y="520" as="sourcePoint"/>
            <mxPoint x="240" y="680" as="targetPoint"/>
          </mxGeometry>
        </mxCell>
      </root>
    </mxGraphModel>
  </diagram>
</mxfile>
